<?xml version="1.0"?>
<svg xmlns="http://www.w3.org/2000/svg" xmlns:xlink="http://www.w3.org/1999/xlink" version="1.1" id="Capa_1" x="0px" y="0px" viewBox="0 0 477.867 477.867" style="enable-background:new 0 0 477.867 477.867;" xml:space="preserve" width="512px" height="512px"><g><g>
	<g>
		<polygon points="207.411,231.544 168.499,309.385 246.323,270.473   " data-original="#000000" class="active-path" data-old_color="#000000" fill="#67B766"/>
	</g>
</g><g>
	<g>
		<polygon points="231.544,207.411 270.455,246.34 309.367,168.499   " data-original="#000000" class="active-path" data-old_color="#000000" fill="#67B766"/>
	</g>
</g><g>
	<g>
		<path d="M238.933,0C106.974,0,0,106.974,0,238.933s106.974,238.933,238.933,238.933s238.933-106.974,238.933-238.933    C477.716,107.036,370.83,0.15,238.933,0z M362.803,137.967l-72.397,144.811c-1.656,3.304-4.339,5.981-7.646,7.629L137.95,362.82    c-8.433,4.21-18.683,0.785-22.892-7.648c-2.397-4.803-2.395-10.454,0.006-15.255l72.397-144.811    c1.656-3.304,4.339-5.981,7.646-7.629l144.811-72.414c8.433-4.209,18.683-0.785,22.892,7.648    C365.206,127.515,365.204,133.166,362.803,137.967z" data-original="#000000" class="active-path" data-old_color="#000000" fill="#67B766"/>
	</g>
</g></g> </svg>
