<?xml version="1.0" encoding="iso-8859-1"?>
<!-- Generator: Adobe Illustrator 17.1.0, SVG Export Plug-In . SVG Version: 6.00 Build 0)  -->
<!DOCTYPE svg PUBLIC "-//W3C//DTD SVG 1.1//EN" "http://www.w3.org/Graphics/SVG/1.1/DTD/svg11.dtd">
<svg version="1.1" id="Capa_1" xmlns="http://www.w3.org/2000/svg" xmlns:xlink="http://www.w3.org/1999/xlink" x="0px" y="0px"
	 viewBox="0 0 194.153 194.153" style="enable-background:new 0 0 194.153 194.153;" xml:space="preserve">
<path style="fill:#000002;" d="M151.183,194.153c-1.022,0-1.982-0.632-2.351-1.649l-22.931-63.316H99.577v8.875
	c0,1.381-1.119,2.5-2.5,2.5s-2.5-1.119-2.5-2.5v-8.875H68.252l-22.931,63.316c-0.471,1.298-1.906,1.971-3.202,1.5
	c-1.298-0.47-1.969-1.904-1.499-3.202l22.314-61.614h-8.107c-1.381,0-2.5-1.119-2.5-2.5s1.119-2.5,2.5-2.5h9.918l20.012-55.256
	c-3.098-3.133-5.013-7.438-5.013-12.181c0-8.708,6.456-15.938,14.833-17.153V34.25h-2.875c-1.381,0-2.5-1.119-2.5-2.5V2.5
	c0-1.381,1.119-2.5,2.5-2.5h10.75c1.381,0,2.5,1.119,2.5,2.5v29.25c0,1.381-1.119,2.5-2.5,2.5h-2.875v5.348
	c8.378,1.215,14.834,8.445,14.834,17.153c0,4.744-1.915,9.048-5.014,12.181l20.012,55.255h9.918c1.381,0,2.5,1.119,2.5,2.5
	s-1.119,2.5-2.5,2.5h-8.107l22.314,61.614c0.47,1.298-0.201,2.731-1.499,3.202C151.753,194.104,151.466,194.153,151.183,194.153z
	 M99.577,124.188h24.515L105.21,72.055c-2.427,1.294-5.196,2.029-8.134,2.029s-5.707-0.734-8.134-2.03l-18.881,52.133h24.515v-8.875
	c0-1.381,1.119-2.5,2.5-2.5s2.5,1.119,2.5,2.5V124.188z M97.077,44.418c-6.801,0-12.333,5.533-12.333,12.333
	c0,6.801,5.532,12.333,12.333,12.333s12.334-5.533,12.334-12.333C109.411,49.951,103.877,44.418,97.077,44.418z M97.077,29.25h2.875
	V5h-5.75v24.25H97.077z"/>
<g>
</g>
<g>
</g>
<g>
</g>
<g>
</g>
<g>
</g>
<g>
</g>
<g>
</g>
<g>
</g>
<g>
</g>
<g>
</g>
<g>
</g>
<g>
</g>
<g>
</g>
<g>
</g>
<g>
</g>
</svg>
