<svg id="Capa_1" enable-background="new 0 0 507.888 507.888" height="512" viewBox="0 0 507.888 507.888" width="512" xmlns="http://www.w3.org/2000/svg"><g><path d="m72.903 310.642c0 5.524-4.478 10.003-10.003 10.003s-10.003-4.478-10.003-10.003c0-5.524 4.478-10.003 10.003-10.003s10.003 4.479 10.003 10.003zm428.975 182.604c-.606 4.488-4.122 8.017-8.611 8.624-90.245 12.192-181.781 6.181-269.434-20.96-65.528-20.29-120.24-65.407-152.114-124.148.044-.027.068-.042.068-.042-6.034-11.167 11.566-20.677 17.6-9.51l.009-.049c29.113 53.867 78.171 95.32 138.368 114.024 82.273 25.564 170.341 33.99 254.994 21.564 12.426-84.653 4.265-172.76-21.552-254.953-24.761-78.833-91.468-143.043-174.537-161.228-67.724-14.824-139.423-16.128-207.269-1.316l84.565 84.565 84.969-5.681c5.521-.372 10.275 3.8 10.645 9.311.368 5.51-3.8 10.276-9.311 10.645l-67.514 4.514 58.904 58.904c29.778-51.261 67.702-116.532 67.702-116.532 4.453-7.105 13.453-5.944 17.293 0 0 0 71.398 122.884 95.188 163.852 27.263 46.948 19.47 106.598-18.969 145.038-50.242 50.242-126.36 43.372-169.728.004-38.443-38.443-46.234-98.094-18.972-145.042 4.349-7.489 10.288-17.715 17.092-29.428l-62.653-62.653-7.733 115.646c-.354 5.283-4.749 9.333-9.968 9.333-.225 0-.449-.007-.677-.023-5.511-.368-9.679-5.134-9.311-10.645l8.899-133.1-84.563-84.566c-13.253 60.707-13.604 124.499-2.91 185.767 2.301 13.141-17.264 16.567-19.566 3.426-12.122-68.418-9.636-137.967 5.684-205.985l-45.531-45.531c-3.905-3.905-3.905-10.237 0-14.143 3.906-3.904 10.236-3.905 14.143 0l45.531 45.532c74.508-16.787 150.866-18.235 225.532-1.814 94.607 20.806 164.865 87.354 192.551 176.456 27.289 87.823 33.402 179.707 21.186 270.144zm-270.411-208.376c-22.714 39.116-16.209 88.813 15.818 120.856 38.994 38.969 102.446 38.97 141.444-.004 32.024-32.039 38.529-81.736 15.815-120.852-18.697-32.197-66.802-114.995-86.539-148.965-19.736 33.971-67.841 116.768-86.538 148.965z"/></g></svg>